# Blender 5.1.1
# www.blender.org
mtllib ShowcaseModel.mtl
o Cube
v 0.458337 1.000000 -0.458337
v 1.000000 -1.000000 -1.000000
v 0.458337 1.000000 0.458337
v 1.000000 -1.000000 1.000000
v -0.458337 1.000000 -0.458337
v -1.000000 -1.000000 -1.000000
v -0.458337 1.000000 0.458337
v -1.000000 -1.000000 1.000000
v 1.000000 1.000000 1.000000
v -1.000000 1.000000 1.000000
v 1.000000 1.000000 -1.000000
v -1.000000 1.000000 -1.000000
v 0.458337 3.641674 0.458337
v -0.458337 3.641674 0.458337
v 0.458337 3.641674 -0.458337
v -0.458337 3.641674 -0.458337
vn -0.0000 -0.0000 -1.0000
vn -0.0000 -0.0000 1.0000
vn -1.0000 -0.0000 -0.0000
vn -0.0000 -1.0000 -0.0000
vn 1.0000 -0.0000 -0.0000
vn -0.0000 1.0000 -0.0000
vt 0.692708 0.567708
vt 0.807292 0.567708
vt 0.375000 0.750000
vt 0.625000 0.750000
vt 0.625000 1.000000
vt 0.375000 1.000000
vt 0.375000 0.000000
vt 0.625000 0.000000
vt 0.625000 0.250000
vt 0.375000 0.250000
vt 0.125000 0.500000
vt 0.375000 0.500000
vt 0.125000 0.750000
vt 0.625000 0.500000
vt 0.692708 0.682292
vt 0.807292 0.682292
vt 0.875000 0.750000
vt 0.875000 0.500000
s 0
usemtl Material
f 1/1/1 5/2/1 16/2/1 15/1/1
f 4/3/2 9/4/2 10/5/2 8/6/2
f 8/7/3 10/8/3 12/9/3 6/10/3
f 6/11/4 2/12/4 4/3/4 8/13/4
f 2/12/5 11/14/5 9/4/5 4/3/5
f 6/10/1 12/9/1 11/14/1 2/12/1
f 3/15/6 7/16/6 10/17/6 9/4/6
f 1/1/6 3/15/6 9/4/6 11/14/6
f 7/16/6 5/2/6 12/18/6 10/17/6
f 5/2/6 1/1/6 11/14/6 12/18/6
f 15/1/6 16/2/6 14/16/6 13/15/6
f 3/15/5 1/1/5 15/1/5 13/15/5
f 5/2/3 7/16/3 14/16/3 16/2/3
f 7/16/2 3/15/2 13/15/2 14/16/2
